<?xml version="1.0" encoding="utf-8"?>
<!-- Generator: Adobe Illustrator 17.0.0, SVG Export Plug-In . SVG Version: 6.00 Build 0)  -->
<!DOCTYPE svg PUBLIC "-//W3C//DTD SVG 1.1//EN" "http://www.w3.org/Graphics/SVG/1.1/DTD/svg11.dtd">
<svg version="1.1" id="Capa_1" xmlns="http://www.w3.org/2000/svg" xmlns:xlink="http://www.w3.org/1999/xlink" x="0px" y="0px"
	 width="163.333px" height="160px" viewBox="0 0 163.333 160" enable-background="new 0 0 163.333 160" xml:space="preserve">
<g>
	<g>
		<path fill="#D63CD6" d="M37.668,7.881c-0.683-1.179-1.696-1.86-2.765-1.86h-7.664c-1.206,0-2.332,0.868-2.998,2.31l-1.289,2.795
			h16.595L37.668,7.881z"/>
		<g>
			<g>
				<path fill="#D63CD6" d="M92.624,44.957c-1.165,2.328-2.019,4.861-2.494,7.555c-1.179,6.681,0.157,13.224,3.326,18.659
					l19.304-22.661L92.624,44.957z"/>
				<path fill="#D63CD6" d="M115.829,29.774c-9.482,0.488-18.02,5.874-22.602,14.045l29.477,5.202L115.829,29.774z"/>
				<path fill="#D63CD6" d="M141.915,69.647c1.165-2.328,2.019-4.86,2.494-7.555c1.178-6.676-0.155-13.214-3.319-18.647
					l-19.31,22.649L141.915,69.647z"/>
				<path fill="#D63CD6" d="M140.416,42.347c-4.014-6.21-10.5-10.799-18.357-12.185c-1.661-0.293-3.314-0.43-4.943-0.423
					l10.053,28.146L140.416,42.347z"/>
				<path fill="#D63CD6" d="M94.13,72.269c4.015,6.204,10.498,10.788,18.349,12.174c1.769,0.312,3.528,0.446,5.259,0.419
					l-10.36-28.144L94.13,72.269z"/>
				<path fill="#D63CD6" d="M119.025,84.81c9.356-0.59,17.756-5.944,22.287-14.025l-29.357-5.181L119.025,84.81z"/>
			</g>
		</g>
		<g>
			<path fill="#D63CD6" d="M145.331,103.668H90.022c-5.917,0-10.73-4.813-10.73-10.73v-6.983c0-0.828,0.672-1.5,1.5-1.5
				c0.828,0,1.5,0.672,1.5,1.5v6.983c0,4.263,3.468,7.73,7.73,7.73h55.309c4.263,0,7.73-3.468,7.73-7.73V24.659
				c0-4.263-3.468-7.73-7.73-7.73H93.839c-3.436,0-6.493,2.308-7.435,5.611L66.341,92.926c-1.802,6.325-7.655,10.742-14.232,10.742
				H24.374c-8.16,0-14.799-6.639-14.799-14.799V29.538c0-8.16,6.639-14.799,14.799-14.799h48.311c0.828,0,1.5,0.671,1.5,1.5
				c0,0.829-0.672,1.5-1.5,1.5H24.374c-6.506,0-11.799,5.293-11.799,11.799V88.87c0,6.506,5.293,11.799,11.799,11.799h27.734
				c5.244,0,9.91-3.521,11.347-8.564l20.064-70.386c1.307-4.586,5.55-7.789,10.319-7.789h51.492c5.917,0,10.73,4.814,10.73,10.731
				v68.279C156.061,98.855,151.248,103.668,145.331,103.668z"/>
		</g>
		<circle fill="#D63CD6" cx="141.591" cy="30.079" r="3.437"/>
	</g>
	<g>
		
			<text transform="matrix(1 0 0 1 9.6861 136.7272)" fill="#D63CD6" font-family="'Raleway-Bold'" font-size="19.2809" letter-spacing="3">OUR PHOTOS</text>
	</g>
	<g>
		
			<text transform="matrix(1 0 0 1 74.5185 150.3503)" fill="#D63CD6" font-family="'Raleway-Light'" font-size="7.2932" letter-spacing="1">APP</text>
	</g>
</g>
</svg>
